<mxfile host="app.diagrams.net" modified="2024-05-14T13:35:43.181Z" agent="Mozilla/5.0 (Windows NT 10.0; Win64; x64) AppleWebKit/537.36 (KHTML, like Gecko) Chrome/124.0.0.0 Safari/537.36 Edg/124.0.0.0" etag="fJ_hQJ-impAAx9IU9yEe" version="24.4.0" type="github">
  <diagram name="第 1 页" id="b8N8rCixuuFsRa8sN-TI">
    <mxGraphModel dx="380" dy="463" grid="0" gridSize="10" guides="1" tooltips="1" connect="1" arrows="1" fold="1" page="0" pageScale="1" pageWidth="827" pageHeight="1169" math="0" shadow="0">
      <root>
        <mxCell id="0" />
        <mxCell id="1" parent="0" />
        <mxCell id="KAa_qxT1jwkZMGta-7AU-33" style="edgeStyle=orthogonalEdgeStyle;rounded=0;orthogonalLoop=1;jettySize=auto;html=1;exitX=0.5;exitY=0.5;exitDx=0;exitDy=15;exitPerimeter=0;entryX=0.5;entryY=0;entryDx=0;entryDy=0;" edge="1" parent="1" source="KAa_qxT1jwkZMGta-7AU-36" target="KAa_qxT1jwkZMGta-7AU-38">
          <mxGeometry relative="1" as="geometry" />
        </mxCell>
        <mxCell id="KAa_qxT1jwkZMGta-7AU-34" style="edgeStyle=orthogonalEdgeStyle;rounded=0;orthogonalLoop=1;jettySize=auto;html=1;exitX=0.5;exitY=0.5;exitDx=0;exitDy=15;exitPerimeter=0;" edge="1" parent="1" source="KAa_qxT1jwkZMGta-7AU-36" target="KAa_qxT1jwkZMGta-7AU-40">
          <mxGeometry relative="1" as="geometry" />
        </mxCell>
        <mxCell id="KAa_qxT1jwkZMGta-7AU-35" style="edgeStyle=orthogonalEdgeStyle;rounded=0;orthogonalLoop=1;jettySize=auto;html=1;exitX=0.5;exitY=0.5;exitDx=0;exitDy=15;exitPerimeter=0;entryX=0.5;entryY=0;entryDx=0;entryDy=0;" edge="1" parent="1" source="KAa_qxT1jwkZMGta-7AU-36" target="KAa_qxT1jwkZMGta-7AU-42">
          <mxGeometry relative="1" as="geometry" />
        </mxCell>
        <mxCell id="KAa_qxT1jwkZMGta-7AU-36" value="开始" style="html=1;dashed=0;whiteSpace=wrap;shape=mxgraph.dfd.start" vertex="1" parent="1">
          <mxGeometry x="193" y="80" width="78" height="30" as="geometry" />
        </mxCell>
        <mxCell id="KAa_qxT1jwkZMGta-7AU-37" style="edgeStyle=orthogonalEdgeStyle;rounded=0;orthogonalLoop=1;jettySize=auto;html=1;exitX=0.5;exitY=1;exitDx=0;exitDy=0;" edge="1" parent="1" source="KAa_qxT1jwkZMGta-7AU-38" target="KAa_qxT1jwkZMGta-7AU-44">
          <mxGeometry relative="1" as="geometry" />
        </mxCell>
        <mxCell id="KAa_qxT1jwkZMGta-7AU-38" value="新增或编辑用户" style="html=1;dashed=0;whiteSpace=wrap;" vertex="1" parent="1">
          <mxGeometry x="75" y="150" width="70" height="40" as="geometry" />
        </mxCell>
        <mxCell id="KAa_qxT1jwkZMGta-7AU-39" style="edgeStyle=orthogonalEdgeStyle;rounded=0;orthogonalLoop=1;jettySize=auto;html=1;exitX=0.5;exitY=1;exitDx=0;exitDy=0;" edge="1" parent="1" source="KAa_qxT1jwkZMGta-7AU-40" target="KAa_qxT1jwkZMGta-7AU-51">
          <mxGeometry relative="1" as="geometry" />
        </mxCell>
        <mxCell id="KAa_qxT1jwkZMGta-7AU-40" value="删除用户" style="html=1;dashed=0;whiteSpace=wrap;" vertex="1" parent="1">
          <mxGeometry x="197" y="150" width="70" height="40" as="geometry" />
        </mxCell>
        <mxCell id="KAa_qxT1jwkZMGta-7AU-41" style="edgeStyle=orthogonalEdgeStyle;rounded=0;orthogonalLoop=1;jettySize=auto;html=1;exitX=0.5;exitY=1;exitDx=0;exitDy=0;" edge="1" parent="1" source="KAa_qxT1jwkZMGta-7AU-42" target="KAa_qxT1jwkZMGta-7AU-53">
          <mxGeometry relative="1" as="geometry" />
        </mxCell>
        <mxCell id="KAa_qxT1jwkZMGta-7AU-42" value="模糊查询" style="html=1;dashed=0;whiteSpace=wrap;" vertex="1" parent="1">
          <mxGeometry x="307" y="150" width="80" height="40" as="geometry" />
        </mxCell>
        <mxCell id="KAa_qxT1jwkZMGta-7AU-43" style="edgeStyle=orthogonalEdgeStyle;rounded=0;orthogonalLoop=1;jettySize=auto;html=1;exitX=0.5;exitY=1;exitDx=0;exitDy=0;" edge="1" parent="1" source="KAa_qxT1jwkZMGta-7AU-44" target="KAa_qxT1jwkZMGta-7AU-49">
          <mxGeometry relative="1" as="geometry" />
        </mxCell>
        <mxCell id="KAa_qxT1jwkZMGta-7AU-44" value="用户信息&lt;div&gt;表单&lt;/div&gt;" style="shape=parallelogram;perimeter=parallelogramPerimeter;whiteSpace=wrap;html=1;dashed=0;" vertex="1" parent="1">
          <mxGeometry x="58.5" y="220" width="103" height="30" as="geometry" />
        </mxCell>
        <mxCell id="KAa_qxT1jwkZMGta-7AU-45" style="edgeStyle=orthogonalEdgeStyle;rounded=0;orthogonalLoop=1;jettySize=auto;html=1;exitX=0.5;exitY=1;exitDx=0;exitDy=0;entryX=0;entryY=0.5;entryDx=0;entryDy=0;" edge="1" parent="1" source="KAa_qxT1jwkZMGta-7AU-49" target="KAa_qxT1jwkZMGta-7AU-55">
          <mxGeometry relative="1" as="geometry" />
        </mxCell>
        <mxCell id="KAa_qxT1jwkZMGta-7AU-46" value="Y" style="edgeLabel;html=1;align=center;verticalAlign=middle;resizable=0;points=[];" vertex="1" connectable="0" parent="KAa_qxT1jwkZMGta-7AU-45">
          <mxGeometry x="-0.0588" relative="1" as="geometry">
            <mxPoint as="offset" />
          </mxGeometry>
        </mxCell>
        <mxCell id="KAa_qxT1jwkZMGta-7AU-47" style="edgeStyle=orthogonalEdgeStyle;rounded=0;orthogonalLoop=1;jettySize=auto;html=1;exitX=1;exitY=0.5;exitDx=0;exitDy=0;entryX=0.5;entryY=0;entryDx=0;entryDy=0;" edge="1" parent="1" source="KAa_qxT1jwkZMGta-7AU-49">
          <mxGeometry relative="1" as="geometry">
            <mxPoint x="167.5" y="330" as="targetPoint" />
          </mxGeometry>
        </mxCell>
        <mxCell id="KAa_qxT1jwkZMGta-7AU-48" value="N" style="edgeLabel;html=1;align=center;verticalAlign=middle;resizable=0;points=[];" vertex="1" connectable="0" parent="KAa_qxT1jwkZMGta-7AU-47">
          <mxGeometry x="0.1856" y="-1" relative="1" as="geometry">
            <mxPoint as="offset" />
          </mxGeometry>
        </mxCell>
        <mxCell id="KAa_qxT1jwkZMGta-7AU-49" value="修改请求成功" style="shape=rhombus;html=1;dashed=0;whiteSpace=wrap;perimeter=rhombusPerimeter;" vertex="1" parent="1">
          <mxGeometry x="64.25" y="280" width="91.5" height="40" as="geometry" />
        </mxCell>
        <mxCell id="KAa_qxT1jwkZMGta-7AU-50" style="edgeStyle=orthogonalEdgeStyle;rounded=0;orthogonalLoop=1;jettySize=auto;html=1;exitX=0.5;exitY=1;exitDx=0;exitDy=0;" edge="1" parent="1" source="KAa_qxT1jwkZMGta-7AU-51" target="KAa_qxT1jwkZMGta-7AU-59">
          <mxGeometry relative="1" as="geometry" />
        </mxCell>
        <mxCell id="KAa_qxT1jwkZMGta-7AU-51" value="用户编号" style="shape=parallelogram;perimeter=parallelogramPerimeter;whiteSpace=wrap;html=1;dashed=0;" vertex="1" parent="1">
          <mxGeometry x="180.5" y="220" width="103" height="30" as="geometry" />
        </mxCell>
        <mxCell id="KAa_qxT1jwkZMGta-7AU-52" style="edgeStyle=orthogonalEdgeStyle;rounded=0;orthogonalLoop=1;jettySize=auto;html=1;exitX=0.5;exitY=1;exitDx=0;exitDy=0;entryX=0.5;entryY=0;entryDx=0;entryDy=0;" edge="1" parent="1" source="KAa_qxT1jwkZMGta-7AU-53" target="KAa_qxT1jwkZMGta-7AU-62">
          <mxGeometry relative="1" as="geometry" />
        </mxCell>
        <mxCell id="KAa_qxT1jwkZMGta-7AU-53" value="查询表单" style="shape=parallelogram;perimeter=parallelogramPerimeter;whiteSpace=wrap;html=1;dashed=0;" vertex="1" parent="1">
          <mxGeometry x="295.5" y="220" width="103" height="30" as="geometry" />
        </mxCell>
        <mxCell id="KAa_qxT1jwkZMGta-7AU-54" style="edgeStyle=orthogonalEdgeStyle;rounded=0;orthogonalLoop=1;jettySize=auto;html=1;exitX=0.5;exitY=1;exitDx=0;exitDy=0;" edge="1" parent="1" source="KAa_qxT1jwkZMGta-7AU-55" target="KAa_qxT1jwkZMGta-7AU-65">
          <mxGeometry relative="1" as="geometry" />
        </mxCell>
        <mxCell id="KAa_qxT1jwkZMGta-7AU-55" value="更新用户列表" style="html=1;dashed=0;whiteSpace=wrap;" vertex="1" parent="1">
          <mxGeometry x="145" y="370" width="174" height="30" as="geometry" />
        </mxCell>
        <mxCell id="KAa_qxT1jwkZMGta-7AU-56" value="错误提示" style="shape=parallelogram;perimeter=parallelogramPerimeter;whiteSpace=wrap;html=1;dashed=0;" vertex="1" parent="1">
          <mxGeometry x="130" y="330" width="79" height="30" as="geometry" />
        </mxCell>
        <mxCell id="KAa_qxT1jwkZMGta-7AU-57" style="edgeStyle=orthogonalEdgeStyle;rounded=0;orthogonalLoop=1;jettySize=auto;html=1;exitX=0.5;exitY=1;exitDx=0;exitDy=0;" edge="1" parent="1" source="KAa_qxT1jwkZMGta-7AU-59" target="KAa_qxT1jwkZMGta-7AU-55">
          <mxGeometry relative="1" as="geometry" />
        </mxCell>
        <mxCell id="KAa_qxT1jwkZMGta-7AU-58" value="Y" style="edgeLabel;html=1;align=center;verticalAlign=middle;resizable=0;points=[];" vertex="1" connectable="0" parent="KAa_qxT1jwkZMGta-7AU-57">
          <mxGeometry x="-0.32" y="-2" relative="1" as="geometry">
            <mxPoint as="offset" />
          </mxGeometry>
        </mxCell>
        <mxCell id="KAa_qxT1jwkZMGta-7AU-59" value="删除请求成功" style="shape=rhombus;html=1;dashed=0;whiteSpace=wrap;perimeter=rhombusPerimeter;" vertex="1" parent="1">
          <mxGeometry x="186.25" y="280" width="91.5" height="40" as="geometry" />
        </mxCell>
        <mxCell id="KAa_qxT1jwkZMGta-7AU-60" style="edgeStyle=orthogonalEdgeStyle;rounded=0;orthogonalLoop=1;jettySize=auto;html=1;exitX=0.5;exitY=1;exitDx=0;exitDy=0;entryX=1;entryY=0.5;entryDx=0;entryDy=0;" edge="1" parent="1" source="KAa_qxT1jwkZMGta-7AU-62" target="KAa_qxT1jwkZMGta-7AU-55">
          <mxGeometry relative="1" as="geometry" />
        </mxCell>
        <mxCell id="KAa_qxT1jwkZMGta-7AU-61" value="Y" style="edgeLabel;html=1;align=center;verticalAlign=middle;resizable=0;points=[];" vertex="1" connectable="0" parent="KAa_qxT1jwkZMGta-7AU-60">
          <mxGeometry x="-0.4768" y="-3" relative="1" as="geometry">
            <mxPoint as="offset" />
          </mxGeometry>
        </mxCell>
        <mxCell id="KAa_qxT1jwkZMGta-7AU-62" value="查询请求成功" style="shape=rhombus;html=1;dashed=0;whiteSpace=wrap;perimeter=rhombusPerimeter;" vertex="1" parent="1">
          <mxGeometry x="298.75" y="280" width="96.5" height="40" as="geometry" />
        </mxCell>
        <mxCell id="KAa_qxT1jwkZMGta-7AU-63" style="edgeStyle=orthogonalEdgeStyle;rounded=0;orthogonalLoop=1;jettySize=auto;html=1;exitX=0;exitY=0.5;exitDx=0;exitDy=0;entryX=0.658;entryY=-0.033;entryDx=0;entryDy=0;entryPerimeter=0;" edge="1" parent="1" source="KAa_qxT1jwkZMGta-7AU-59" target="KAa_qxT1jwkZMGta-7AU-56">
          <mxGeometry relative="1" as="geometry" />
        </mxCell>
        <mxCell id="KAa_qxT1jwkZMGta-7AU-64" value="N" style="edgeLabel;html=1;align=center;verticalAlign=middle;resizable=0;points=[];" vertex="1" connectable="0" parent="KAa_qxT1jwkZMGta-7AU-63">
          <mxGeometry x="-0.108" y="2" relative="1" as="geometry">
            <mxPoint as="offset" />
          </mxGeometry>
        </mxCell>
        <mxCell id="KAa_qxT1jwkZMGta-7AU-65" value="结束" style="html=1;dashed=0;whiteSpace=wrap;shape=mxgraph.dfd.start" vertex="1" parent="1">
          <mxGeometry x="192" y="420" width="80" height="30" as="geometry" />
        </mxCell>
      </root>
    </mxGraphModel>
  </diagram>
</mxfile>
